<?xml version="1.0" encoding="UTF-8"?>
<svg width="120" height="120" viewBox="0 0 120 120" xmlns="http://www.w3.org/2000/svg">
  <!-- Background Circle -->
  <circle cx="60" cy="60" r="60" fill="#8E59D7" opacity="0.1"/>
  
  <!-- Avatar Body -->
  <circle cx="60" cy="65" r="40" fill="#4CAF50"/>
  
  <!-- Eyes -->
  <circle cx="45" cy="55" r="8" fill="white"/>
  <circle cx="75" cy="55" r="8" fill="white"/>
  <circle cx="45" cy="53" r="4" fill="black"/>
  <circle cx="75" cy="53" r="4" fill="black"/>
  
  <!-- Mouth -->
  <path d="M45,75 Q60,90 75,75" stroke="white" stroke-width="3" fill="none"/>
  
  <!-- Antenna -->
  <line x1="60" y1="25" x2="60" y2="10" stroke="#8E59D7" stroke-width="3"/>
  <circle cx="60" cy="7" r="5" fill="#8E59D7"/>
  
  <!-- Arms -->
  <path d="M20,65 Q25,55 30,60" stroke="#4CAF50" stroke-width="8" fill="none" stroke-linecap="round"/>
  <path d="M100,65 Q95,55 90,60" stroke="#4CAF50" stroke-width="8" fill="none" stroke-linecap="round"/>
  
  <!-- Legs -->
  <path d="M45,105 Q50,95 55,100" stroke="#4CAF50" stroke-width="8" fill="none" stroke-linecap="round"/>
  <path d="M75,105 Q70,95 65,100" stroke="#4CAF50" stroke-width="8" fill="none" stroke-linecap="round"/>
  
  <!-- Ears -->
  <ellipse cx="30" cy="35" rx="10" ry="15" fill="#4CAF50" transform="rotate(-15 30 35)"/>
  <ellipse cx="90" cy="35" rx="10" ry="15" fill="#4CAF50" transform="rotate(15 90 35)"/>
</svg> 
