<svg width="40" height="24" viewBox="0 0 40 24" fill="none" xmlns="http://www.w3.org/2000/svg">
  <rect width="40" height="24" rx="2" fill="#F7F7F7"/>
  <path d="M32 12.4V11.6H30.6L30 10.4L29.4 11.6H28V12.4H29.8L30.2 13.2L30.6 12.4H32Z" fill="#006FCF"/>
  <path d="M32 10.8V10H28.8L28.4 11L28 10H25V13.6H27.8L28.2 12.6L28.6 13.6H29.4V12.2H28.6C28.8 12.2 29 12 29 11.8C29 11.6 28.8 11.4 28.6 11.4H29.4L30 10.8H32Z" fill="#006FCF"/>
  <path d="M26.6 13V10H24.4L24 11L23.6 10H20.6V13.6H22.4V11.2H22.6L23.4 13.6H24.6L25.4 11.2H25.6V13.6H26.6V13Z" fill="#006FCF"/>
  <path d="M20 13V10H16V13.6H19.8L20.4 12.6L20 13Z" fill="#006FCF"/>
  <path d="M19 12.6H17.2V12H19V11.4H17.2V10.8H19L19.6 11.6L19 12.6Z" fill="#006FCF"/>
  <path d="M14 10L12.6 13.6H14.4L14.6 13H16.4L16.6 13.6H18.4L17 10H14Z" fill="#006FCF"/>
  <path d="M15 11.2L15.6 12.4H14.4L15 11.2Z" fill="#006FCF"/>
  <path d="M13.4 10H11.6V13.6H13.4V12.2H14.8L15.4 11.2L14.8 10.2H13.4V10Z" fill="#006FCF"/>
  <path d="M12.6 11.6V10.8H13.8V11.6H12.6Z" fill="#006FCF"/>
  <path d="M8 10V13.6H11.8V12.8H9.8V12.2H11.8V11.4H9.8V10.8H11.8V10H8Z" fill="#006FCF"/>
</svg>
