<svg width="40" height="24" viewBox="0 0 40 24" fill="none" xmlns="http://www.w3.org/2000/svg">
  <rect width="40" height="24" rx="2" fill="#F7F7F7"/>
  <path d="M24 7H16V17H24V7Z" fill="#DEDDDC"/>
  <path d="M16.8 12C16.8 10 17.8 8.2 19.4 7C18.2 6 16.6 5.4 15 5.4C11.4 5.4 8.4 8.4 8.4 12C8.4 15.6 11.4 18.6 15 18.6C16.6 18.6 18.2 18 19.4 17C17.8 15.8 16.8 14 16.8 12Z" fill="#EB001B"/>
  <path d="M31.6 12C31.6 15.6 28.6 18.6 25 18.6C23.4 18.6 21.8 18 20.6 17C22.2 15.8 23.2 14 23.2 12C23.2 10 22.2 8.2 20.6 7C21.8 6 23.4 5.4 25 5.4C28.6 5.4 31.6 8.4 31.6 12Z" fill="#F79E1B"/>
</svg>
