<svg width="40" height="24" viewBox="0 0 40 24" fill="none" xmlns="http://www.w3.org/2000/svg">
  <rect width="40" height="24" rx="2" fill="#F7F7F7"/>
  <path d="M28.2 9.4C28.2 11 27 12 25.4 12H24C23.8 12 23.6 12.2 23.6 12.4L23.2 14.8C23.2 15 23 15.2 22.8 15.2H21C20.8 15.2 20.6 15 20.6 14.8L22 7.2C22 7 22.2 6.8 22.4 6.8H26.6C27.6 6.8 28.2 7.4 28.2 8.2V9.4Z" fill="#253B80"/>
  <path d="M16.2 9.4C16.2 11 15 12 13.4 12H12C11.8 12 11.6 12.2 11.6 12.4L11.2 14.8C11.2 15 11 15.2 10.8 15.2H9C8.8 15.2 8.6 15 8.6 14.8L10 7.2C10 7 10.2 6.8 10.4 6.8H14.6C15.6 6.8 16.2 7.4 16.2 8.2V9.4Z" fill="#179BD7"/>
  <path d="M22.2 8.8C22.2 9 22 9.2 21.8 9.2C21.6 9.2 21.4 9 21.4 8.8C21.4 8.6 21.6 8.4 21.8 8.4C22 8.4 22.2 8.6 22.2 8.8Z" fill="#253B80"/>
  <path d="M27.2 8.8C27.2 9 27 9.2 26.8 9.2C26.6 9.2 26.4 9 26.4 8.8C26.4 8.6 26.6 8.4 26.8 8.4C27 8.4 27.2 8.6 27.2 8.8Z" fill="#253B80"/>
</svg>
