<svg width="40" height="24" viewBox="0 0 40 24" fill="none" xmlns="http://www.w3.org/2000/svg">
  <rect width="40" height="24" rx="2" fill="#F7F7F7"/>
  <path d="M16.4 15.8H14L15.6 8.2H18L16.4 15.8Z" fill="#1A1F71"/>
  <path d="M24.8 8.4C24.2 8.2 23.2 8 22 8C19.6 8 17.8 9.2 17.8 11C17.8 12.4 19.2 13 20.2 13.4C21.2 13.8 21.6 14.2 21.6 14.6C21.6 15.2 20.8 15.6 20 15.6C19 15.6 18.4 15.4 17.4 15L17 14.8L16.6 16.8C17.2 17.2 18.4 17.4 19.6 17.4C22.2 17.4 24 16.2 24 14.2C24 13 23 12.2 21.6 11.6C20.8 11.2 20.2 11 20.2 10.4C20.2 10 20.6 9.6 21.6 9.6C22.4 9.6 23 9.8 23.4 10L23.8 10.2L24.2 8.4H24.8Z" fill="#1A1F71"/>
  <path d="M28.4 8.2H26.4C25.8 8.2 25.4 8.4 25.2 9L22 15.8H24.6L25 14.6H27.8L28 15.8H30.4L28.4 8.2ZM25.6 13C25.8 12.4 26.8 10 26.8 10C26.8 10 27 9.6 27.2 9L27.4 10C27.4 10 28 12.4 28.2 13H25.6Z" fill="#1A1F71"/>
  <path d="M13.6 8.2L11.2 13.4L11 12.6C10.4 11 9 9.4 7.4 8.6L9.6 15.8H12.2L16.2 8.2H13.6Z" fill="#1A1F71"/>
  <path d="M9.2 8.2H5L5 8.4C8 9.2 10 11 11 13L10 9C9.8 8.4 9.6 8.2 9.2 8.2Z" fill="#E79800"/>
</svg>
