<?xml version="1.0" encoding="UTF-8"?>
<svg width="120" height="120" viewBox="0 0 120 120" xmlns="http://www.w3.org/2000/svg">
  <!-- Background Circle -->
  <circle cx="60" cy="60" r="60" fill="#009688" opacity="0.1"/>
  
  <!-- Avatar Body -->
  <circle cx="60" cy="65" r="40" fill="#009688"/>
  
  <!-- Eyes -->
  <circle cx="45" cy="60" r="8" fill="white"/>
  <circle cx="75" cy="60" r="8" fill="white"/>
  <circle cx="45" cy="60" r="4" fill="black"/>
  <circle cx="75" cy="60" r="4" fill="black"/>
  
  <!-- Mouth -->
  <path d="M45,80 Q60,90 75,80" stroke="white" stroke-width="3" fill="none"/>
  
  <!-- Hat -->
  <path d="M30,35 Q60,10 90,35" fill="#FF5722"/>
  <ellipse cx="60" cy="35" rx="30" ry="10" fill="#FF5722"/>
  
  <!-- Arms -->
  <path d="M20,65 Q25,55 30,60" stroke="#009688" stroke-width="8" fill="none" stroke-linecap="round"/>
  <path d="M100,65 Q95,55 90,60" stroke="#009688" stroke-width="8" fill="none" stroke-linecap="round"/>
  
  <!-- Legs -->
  <path d="M45,105 Q50,95 55,100" stroke="#009688" stroke-width="8" fill="none" stroke-linecap="round"/>
  <path d="M75,105 Q70,95 65,100" stroke="#009688" stroke-width="8" fill="none" stroke-linecap="round"/>
  
  <!-- Hat Decoration -->
  <circle cx="60" cy="25" r="5" fill="#FFC107"/>
</svg> 
