<?xml version="1.0" encoding="UTF-8"?>
<svg width="120" height="120" viewBox="0 0 120 120" xmlns="http://www.w3.org/2000/svg">
  <!-- Background Circle -->
  <circle cx="60" cy="60" r="60" fill="#FF4500" opacity="0.1"/>
  
  <!-- Avatar Body -->
  <circle cx="60" cy="65" r="40" fill="#E53935"/>
  
  <!-- Eyes -->
  <circle cx="45" cy="55" r="8" fill="white"/>
  <circle cx="75" cy="55" r="8" fill="white"/>
  <circle cx="45" cy="55" r="4" fill="black"/>
  <circle cx="75" cy="55" r="4" fill="black"/>
  
  <!-- Mouth -->
  <path d="M45,80 Q60,70 75,80" stroke="white" stroke-width="3" fill="none"/>
  
  <!-- Antennas -->
  <line x1="50" y1="25" x2="45" y2="10" stroke="#FF9800" stroke-width="3"/>
  <circle cx="45" cy="7" r="5" fill="#FF9800"/>
  
  <line x1="70" y1="25" x2="75" y2="10" stroke="#FF9800" stroke-width="3"/>
  <circle cx="75" cy="7" r="5" fill="#FF9800"/>
  
  <!-- Arms -->
  <path d="M20,65 Q25,55 30,60" stroke="#E53935" stroke-width="8" fill="none" stroke-linecap="round"/>
  <path d="M100,65 Q95,55 90,60" stroke="#E53935" stroke-width="8" fill="none" stroke-linecap="round"/>
  
  <!-- Legs -->
  <path d="M45,105 Q50,95 55,100" stroke="#E53935" stroke-width="8" fill="none" stroke-linecap="round"/>
  <path d="M75,105 Q70,95 65,100" stroke="#E53935" stroke-width="8" fill="none" stroke-linecap="round"/>
  
  <!-- Accessories -->
  <rect x="40" y="30" width="40" height="10" rx="5" fill="#FFC107"/>
</svg> 
